<svg width="85" height="85" viewBox="0 0 85 85" fill="none" xmlns="http://www.w3.org/2000/svg">
<g id="ph:stethoscope-bold">
<path id="Vector" d="M82.3438 53.125C82.3444 50.6796 81.6699 48.2816 80.3946 46.1951C79.1193 44.1086 77.2927 42.4148 75.1161 41.3002C72.9395 40.1856 70.4975 39.6935 68.0591 39.8783C65.6207 40.063 63.2807 40.9174 61.2969 42.3472C59.3131 43.777 57.7626 45.7267 56.8162 47.9815C55.8698 50.2363 55.5643 52.7086 55.9334 55.126C56.3024 57.5433 57.3317 59.8119 58.9078 61.6816C60.4839 63.5513 62.5456 64.9495 64.8656 65.7223C64.4153 67.7969 63.2684 69.6549 61.6158 70.9874C59.9631 72.3199 57.9042 73.0467 55.7812 73.0469H47.8125C45.3468 73.0469 42.9821 72.0674 41.2386 70.3239C39.4951 68.5804 38.5156 66.2157 38.5156 63.75V51.4316C49.051 49.5125 57.1094 40.1127 57.1094 28.9432V13.2812C57.1094 12.2245 56.6896 11.2111 55.9424 10.4639C55.1952 9.71666 54.1817 9.29688 53.125 9.29688H45.1562C44.0995 9.29688 43.0861 9.71666 42.3389 10.4639C41.5917 11.2111 41.1719 12.2245 41.1719 13.2812C41.1719 14.338 41.5917 15.3514 42.3389 16.0986C43.0861 16.8458 44.0995 17.2656 45.1562 17.2656H49.1406V28.9432C49.1406 37.0447 42.676 43.7252 34.7271 43.8281C32.7922 43.8541 30.8714 43.4953 29.0762 42.7728C27.281 42.0502 25.6473 40.9782 24.2699 39.619C22.8925 38.2598 21.7988 36.6405 21.0524 34.8551C20.306 33.0698 19.9217 31.1539 19.9219 29.2188V17.2656H23.9062C24.963 17.2656 25.9764 16.8458 26.7236 16.0986C27.4708 15.3514 27.8906 14.338 27.8906 13.2812C27.8906 12.2245 27.4708 11.2111 26.7236 10.4639C25.9764 9.71666 24.963 9.29688 23.9062 9.29688H15.9375C14.8808 9.29688 13.8673 9.71666 13.1201 10.4639C12.3729 11.2111 11.9531 12.2245 11.9531 13.2812V29.2188C11.9533 34.5156 13.8159 39.6438 17.2149 43.7063C20.614 47.7688 25.3331 50.5069 30.5469 51.4416V63.75C30.5521 68.3275 32.3729 72.716 35.6097 75.9528C38.8465 79.1896 43.235 81.0104 47.8125 81.0156H55.7812C59.9975 81.0106 64.0666 79.4646 67.2226 76.6688C70.3786 73.873 72.4039 70.0201 72.9174 65.8352C75.642 65.0044 78.0281 63.3213 79.7249 61.0333C81.4217 58.7454 82.3397 55.9734 82.3438 53.125ZM69.0625 58.4375C68.0118 58.4375 66.9847 58.1259 66.111 57.5422C65.2374 56.9584 64.5565 56.1287 64.1544 55.158C63.7523 54.1873 63.6471 53.1191 63.8521 52.0886C64.0571 51.0581 64.563 50.1115 65.306 49.3685C66.049 48.6255 66.9956 48.1196 68.0261 47.9146C69.0566 47.7096 70.1248 47.8148 71.0955 48.2169C72.0662 48.619 72.8959 49.2999 73.4797 50.1735C74.0634 51.0472 74.375 52.0743 74.375 53.125C74.375 54.534 73.8153 55.8852 72.819 56.8815C71.8227 57.8778 70.4715 58.4375 69.0625 58.4375Z" fill="#005BE2" fill-opacity="0.2"/>
</g>
</svg>
