<svg width="20" height="20" viewBox="0 0 20 20" fill="none" xmlns="http://www.w3.org/2000/svg">
<path d="M2 2.68142H5L7 0.570312H13L15 2.68142H18C18.5304 2.68142 19.0391 2.90384 19.4142 3.29975C19.7893 3.69566 20 4.23263 20 4.79253V17.4592C20 18.0191 19.7893 18.5561 19.4142 18.952C19.0391 19.3479 18.5304 19.5703 18 19.5703H2C1.46957 19.5703 0.960859 19.3479 0.585786 18.952C0.210714 18.5561 0 18.0191 0 17.4592V4.79253C0 4.23263 0.210714 3.69566 0.585786 3.29975C0.960859 2.90384 1.46957 2.68142 2 2.68142ZM10 5.84809C8.67392 5.84809 7.40215 6.40414 6.46447 7.39392C5.52678 8.38369 5 9.72611 5 11.1259C5 12.5256 5.52678 13.868 6.46447 14.8578C7.40215 15.8476 8.67392 16.4036 10 16.4036C11.3261 16.4036 12.5979 15.8476 13.5355 14.8578C14.4732 13.868 15 12.5256 15 11.1259C15 9.72611 14.4732 8.38369 13.5355 7.39392C12.5979 6.40414 11.3261 5.84809 10 5.84809ZM10 7.9592C10.7956 7.9592 11.5587 8.29283 12.1213 8.8867C12.6839 9.48056 13 10.286 13 11.1259C13 11.9657 12.6839 12.7712 12.1213 13.365C11.5587 13.9589 10.7956 14.2925 10 14.2925C9.20435 14.2925 8.44129 13.9589 7.87868 13.365C7.31607 12.7712 7 11.9657 7 11.1259C7 10.286 7.31607 9.48056 7.87868 8.8867C8.44129 8.29283 9.20435 7.9592 10 7.9592Z" fill="white"/>
</svg>
