<svg width="30" height="27" viewBox="0 0 30 27" fill="none" xmlns="http://www.w3.org/2000/svg">
<path id="Vector" d="M11.1487 0.59082C5.17912 0.59082 0.339844 5.47843 0.339844 11.5076C0.339844 13.1575 0.70292 14.7244 1.35351 16.1289C0.918103 17.9121 0.540946 19.8168 0.371175 20.7029C0.179066 21.7058 1.04219 22.5844 2.03314 22.4062C2.93144 22.2447 4.8841 21.8811 6.6975 21.4584C8.05609 22.0792 9.56378 22.4244 11.1487 22.4244C17.1182 22.4244 21.9575 17.5368 21.9575 11.5076C21.9575 5.47843 17.1182 0.59082 11.1487 0.59082ZM7.67627 6.99016C8.05625 6.28229 8.55809 5.74808 9.19445 5.40474C9.81998 5.06722 10.4931 4.95865 11.1485 4.9586C11.9072 4.95856 12.7883 5.21027 13.5 5.79929C14.2451 6.41591 14.7515 7.36195 14.7515 8.59648C14.7515 10.0151 13.7589 10.7852 13.1993 11.2194C13.156 11.253 13.1149 11.2849 13.0774 11.3148C12.4655 11.8005 12.2294 12.06 12.2294 12.5993C12.2294 13.2022 11.7455 13.691 11.1485 13.691C10.5516 13.691 10.0677 13.2022 10.0677 12.5993C10.0677 10.9487 11.0927 10.1131 11.7417 9.598C12.4815 9.01086 12.5897 8.88008 12.5897 8.59648C12.5897 8.01856 12.3756 7.69147 12.1298 7.4881C11.8507 7.25713 11.4708 7.14195 11.1486 7.14196C10.7231 7.14199 10.4306 7.21313 10.2131 7.33052C10.0063 7.44206 9.78759 7.63792 9.57669 8.0308C9.29217 8.56083 8.63609 8.75755 8.11131 8.47019C7.58652 8.18283 7.39175 7.5202 7.67627 6.99016ZM11.1488 15.1466C11.9448 15.1466 12.59 15.7982 12.59 16.6023C12.59 17.4062 11.9448 18.0579 11.1488 18.0579C10.3528 18.0579 9.70751 17.4062 9.70751 16.6023C9.70751 15.7982 10.3528 15.1466 11.1488 15.1466ZM11.0051 23.8787C12.9337 25.6858 15.5165 26.7907 18.3547 26.7907C19.9393 26.7907 21.4466 26.4456 22.8049 25.8251C24.3092 26.1807 25.9558 26.5356 27.0037 26.7568C28.2899 27.0283 29.4132 25.8623 29.1186 24.5743C28.8844 23.5505 28.515 21.9611 28.1504 20.4939C28.8007 19.0897 29.1636 17.5232 29.1636 15.8739C29.1636 11.0954 26.1237 7.03387 21.8905 5.55456C22.3954 6.4818 22.7858 7.48149 23.0429 8.53424C25.4251 10.0896 27.0018 12.7958 27.0018 15.8739C27.0018 17.317 26.6561 18.6753 26.0447 19.8721L25.8566 20.2403L25.9577 20.6419C26.2861 21.9453 26.6301 23.4075 26.8822 24.4999C25.7667 24.2617 24.2627 23.932 22.9346 23.6126L22.5535 23.5211L22.2025 23.6975C21.045 24.2794 19.7393 24.6074 18.3547 24.6074C16.8277 24.6074 15.3931 24.2076 14.1481 23.5061C13.1882 23.75 12.1836 23.8796 11.1488 23.8796C11.1009 23.8796 11.053 23.8793 11.0051 23.8787Z" fill="#1371FF"/>
</svg>
