<svg width="78" height="71" viewBox="0 0 78 71" fill="none" xmlns="http://www.w3.org/2000/svg">
<path id="Vector" d="M66.325 64.8709C66.821 65.366 67.1587 65.9968 67.2956 66.6836C67.4325 67.3705 67.3624 68.0824 67.0941 68.7294C66.8257 69.3764 66.3713 69.9294 65.7883 70.3185C65.2052 70.7075 64.5197 70.9152 63.8184 70.9152C63.1172 70.9152 62.4317 70.7075 61.8486 70.3185C61.2656 69.9294 60.8111 69.3764 60.5428 68.7294C60.2745 68.0824 60.2044 67.3705 60.3413 66.6836C60.4781 65.9968 60.8159 65.366 61.3119 64.8709C61.9767 64.2072 62.8783 63.8343 63.8184 63.8343C64.7586 63.8343 65.6602 64.2072 66.325 64.8709ZM76.9612 54.2495C77.4571 54.7446 77.7949 55.3755 77.9318 56.0623C78.0687 56.7491 77.9985 57.461 77.7302 58.108C77.4619 58.755 77.0075 59.308 76.4244 59.6971C75.8414 60.0862 75.1559 60.2938 74.4546 60.2938C73.7534 60.2938 73.0678 60.0862 72.4848 59.6971C71.9017 59.308 71.4473 58.755 71.179 58.108C70.9107 57.461 70.8405 56.7491 70.9774 56.0623C71.1143 55.3755 71.4521 54.7446 71.948 54.2495C72.6129 53.5858 73.5145 53.2129 74.4546 53.2129C75.3947 53.2129 76.2963 53.5858 76.9612 54.2495ZM62.7796 50.7091C63.2756 51.2042 63.6134 51.835 63.7502 52.5218C63.8871 53.2086 63.817 53.9206 63.5487 54.5675C63.2804 55.2145 62.8259 55.7676 62.2429 56.1566C61.6598 56.5457 60.9743 56.7534 60.2731 56.7534C59.5718 56.7534 58.8863 56.5457 58.3032 56.1566C57.7202 55.7676 57.2658 55.2145 56.9974 54.5675C56.7291 53.9206 56.659 53.2086 56.7959 52.5218C56.9328 51.835 57.2705 51.2042 57.7665 50.7091C58.4313 50.0453 59.3329 49.6725 60.2731 49.6725C61.2132 49.6725 62.1148 50.0453 62.7796 50.7091ZM24.2874 0.112385C27.6406 0.00951344 30.9805 0.580184 34.1087 1.79055C37.237 3.00091 40.09 4.82632 42.4985 7.1585C44.907 9.49068 46.8219 12.2821 48.1298 15.3673C49.4376 18.4524 50.1117 21.7684 50.112 25.1186V25.1753L56.3873 38.4803C56.6432 39.02 56.7583 39.6156 56.7218 40.2116C56.6854 40.8077 56.4985 41.3848 56.1787 41.8894C55.8588 42.3939 55.4164 42.8095 54.8925 43.0974C54.3686 43.3853 53.7803 43.5362 53.1823 43.5361H50.112V49.9089C50.1101 51.724 49.387 53.4642 48.1014 54.7473C46.8158 56.0305 45.0728 56.7517 43.2552 56.7526H40.1813V63.1254C40.1813 64.0644 39.8078 64.965 39.1429 65.6289C38.478 66.2929 37.5763 66.6659 36.636 66.6659C35.6957 66.6659 34.7939 66.2929 34.129 65.6289C33.4641 64.965 33.0906 64.0644 33.0906 63.1254V56.7031C32.1758 56.6451 31.3196 56.2336 30.7037 55.5557C30.0877 54.8779 29.7605 53.987 29.7914 53.0722C29.8223 52.1574 30.2089 51.2906 30.8692 50.6558C31.5295 50.0209 32.4115 49.6679 33.3281 49.6717L36.2814 49.7425C36.3982 49.7125 36.5166 49.6889 36.636 49.6717C36.7892 49.6918 36.9408 49.7226 37.0898 49.7638L43.0212 49.9054V39.9921C43.0212 39.0531 43.3947 38.1526 44.0596 37.4886C44.7245 36.8246 45.6263 36.4516 46.5666 36.4516H47.5912L43.319 27.3951C43.073 26.8786 42.9574 26.3097 42.9822 25.7382L43.0177 25.1222C43.0261 22.7208 42.5477 20.3426 41.6112 18.1308C40.6747 15.919 39.2994 13.9195 37.5684 12.2526C35.8379 10.5819 33.7903 9.27365 31.546 8.40479C29.3017 7.53594 26.9061 7.12403 24.5001 7.1933C19.7288 7.49238 15.2567 9.61709 12.0143 13.1253C8.77188 16.6336 7.00893 21.2552 7.09224 26.0285L13.5909 50.7657C13.7535 51.3852 13.7462 52.037 13.5697 52.6528L10.2654 64.1061C10.0523 64.8441 9.60475 65.4929 8.99017 65.9546C8.3756 66.4164 7.62733 66.666 6.85824 66.6659C6.52472 66.6644 6.19302 66.6168 5.87262 66.5243C4.97039 66.2635 4.20865 65.6558 3.75465 64.8347C3.30064 64.0136 3.19148 63.0462 3.45112 62.1447L6.48598 51.6296L0.118462 27.6855C0.0412979 27.3883 0.00198364 27.0826 0.00145721 26.7756V26.025C-0.0689468 19.4148 2.4165 13.0321 6.94032 8.20595C11.4641 3.37978 17.6777 0.478456 24.2874 0.112385Z" fill="white" fill-opacity="0.5"/>
</svg>
