<svg width="9" height="10" viewBox="0 0 9 10" fill="none" xmlns="http://www.w3.org/2000/svg">
<path id="Vector" d="M4.5 0.5C2.01474 0.5 0 2.51442 0 4.99933C0 7.48422 2.01474 9.49866 4.5 9.49866C5.23818 9.49866 5.95118 9.32044 6.5899 8.98497L8.52058 9.48755C8.725 9.54082 8.9339 9.41826 8.98714 9.21385C9.0036 9.15068 9.00361 9.08432 8.98715 9.0211L8.48479 7.09161C8.82126 6.45234 9 5.73848 9 4.99933C9 2.51442 6.98528 0.5 4.5 0.5ZM3.93674 5.44926H5.9625L6.0083 5.45232C6.17303 5.47468 6.3 5.61587 6.3 5.78671C6.3 5.95755 6.17303 6.09874 6.0083 6.1211L5.9625 6.12416H3.93674L3.89092 6.1211C3.72618 6.09874 3.59924 5.95755 3.59924 5.78671C3.59924 5.61587 3.72618 5.47468 3.89092 5.45232L3.93674 5.44926ZM3.0375 3.8745H5.9625L6.0083 3.87758C6.17303 3.89992 6.3 4.04111 6.3 4.21195C6.3 4.38279 6.17303 4.52398 6.0083 4.54634L5.9625 4.5494H3.0375L2.99169 4.54634C2.82699 4.52398 2.7 4.38279 2.7 4.21195C2.7 4.04111 2.82699 3.89992 2.99169 3.87758L3.0375 3.8745Z" fill="white"/>
</svg>
