<svg width="28" height="28" viewBox="0 0 28 28" fill="none" xmlns="http://www.w3.org/2000/svg">
<g id="Vector">
<path id="Vector_2" d="M24.6808 8.93052C24.6808 9.84149 24.3196 10.7151 23.6768 11.3593C23.0339 12.0035 22.162 12.3653 21.2529 12.3653C19.772 12.3653 18.5106 11.4173 18.0444 10.1121C17.4411 10.6479 16.6458 10.9914 15.7683 10.9914C15.0004 10.9914 14.2874 10.7304 13.7115 10.3044C13.1357 10.7304 12.4364 10.9914 11.6548 10.9914C10.7773 10.9914 9.982 10.6479 9.37869 10.1121C8.9125 11.4173 7.65104 12.3653 6.17019 12.3653C5.26106 12.3653 4.38916 12.0035 3.74631 11.3593C3.10346 10.7151 2.74231 9.84149 2.74231 8.93052C2.74231 7.22685 3.99006 5.81171 5.62173 5.55066C5.53946 5.31709 5.48462 5.06979 5.48462 4.80874C5.48462 4.26216 5.70131 3.73796 6.08702 3.35147C6.47273 2.96498 6.99587 2.74785 7.54135 2.74785C7.81558 2.74785 8.0761 2.80281 8.30919 2.89898C8.54229 2.01967 9.33756 1.37393 10.2837 1.37393C10.6264 1.37393 10.9692 1.4701 11.216 1.60749C11.6548 0.686963 12.6009 0 13.7115 0C14.8222 0 15.7683 0.686963 16.207 1.60749C16.4538 1.4701 16.7966 1.37393 17.1394 1.37393C18.0855 1.37393 18.8808 2.01967 19.1139 2.89898C19.347 2.80281 19.6075 2.74785 19.8817 2.74785C20.4272 2.74785 20.9503 2.96498 21.3361 3.35147C21.7218 3.73796 21.9385 4.26216 21.9385 4.80874C21.9385 5.06979 21.8836 5.31709 21.8013 5.55066C23.433 5.81171 24.6808 7.22685 24.6808 8.93052ZM10.9692 13.7393C10.6056 13.7393 10.2568 13.884 9.99968 14.1417C9.74254 14.3993 9.59808 14.7488 9.59808 15.1132C9.59808 15.4776 9.74254 15.827 9.99968 16.0847C10.2568 16.3424 10.6056 16.4871 10.9692 16.4871C11.3329 16.4871 11.6816 16.3424 11.9388 16.0847C12.1959 15.827 12.3404 15.4776 12.3404 15.1132C12.3404 14.7488 12.1959 14.3993 11.9388 14.1417C11.6816 13.884 11.3329 13.7393 10.9692 13.7393ZM16.4538 13.7393C16.0902 13.7393 15.7414 13.884 15.4843 14.1417C15.2272 14.3993 15.0827 14.7488 15.0827 15.1132C15.0827 15.4776 15.2272 15.827 15.4843 16.0847C15.7414 16.3424 16.0902 16.4871 16.4538 16.4871C16.8175 16.4871 17.1663 16.3424 17.4234 16.0847C17.6805 15.827 17.825 15.4776 17.825 15.1132C17.825 14.7488 17.6805 14.3993 17.4234 14.1417C17.1663 13.884 16.8175 13.7393 16.4538 13.7393ZM24.9961 11.8982C24.1186 13.0111 22.7749 13.7393 21.2529 13.7393C20.6359 13.7393 20.0463 13.6019 19.4841 13.3683C19.4704 16.8718 18.9631 21.1035 17.0709 23.288C16.3579 24.0987 15.494 24.5383 14.3971 24.6757V21.9828H13.026V24.6757C11.929 24.5383 11.0652 24.1124 10.3522 23.288C8.44631 21.0898 7.93898 16.8855 7.92527 13.382C7.37681 13.6019 6.78721 13.7393 6.17019 13.7393C4.64821 13.7393 3.30448 13.0111 2.42694 11.8982C1.20662 13.121 0 13.7393 0 13.7393C0 13.7393 1.37115 16.4871 4.11346 16.4871C4.60708 16.4871 4.991 16.4322 5.32008 16.3635C5.78627 21.6119 7.65104 27.4785 13.7115 27.4785C19.772 27.4785 21.6368 21.6119 22.103 16.3635C22.4321 16.4322 22.816 16.4871 23.3096 16.4871C26.0519 16.4871 27.4231 13.7393 27.4231 13.7393C27.4231 13.7393 26.2165 13.121 24.9961 11.8982Z" fill="#005BE2"/>
</g>
</svg>
