<svg width="25" height="22" viewBox="0 0 25 22" fill="none" xmlns="http://www.w3.org/2000/svg">
<path d="M7.49992 10.4527C10.2613 10.4527 12.4999 8.24038 12.4999 5.51149C12.4999 2.78255 10.2613 0.570312 7.49992 0.570312C4.73853 0.570312 2.49997 2.78255 2.49997 5.51149C2.49997 8.24038 4.73853 10.4527 7.49992 10.4527ZM18.7498 10.4527C20.8209 10.4527 22.4998 8.79354 22.4998 6.74678C22.4998 4.70009 20.8209 3.0409 18.7498 3.0409C16.6787 3.0409 14.9998 4.70009 14.9998 6.74678C14.9998 8.79354 16.6787 10.4527 18.7498 10.4527ZM2.81247 12.9233C1.25919 12.9233 0 14.1677 0 15.7027V16.0115C0 16.0115 0 21.5703 7.49992 21.5703C14.9998 21.5703 14.9998 16.0115 14.9998 16.0115V15.7027C14.9998 14.1677 13.7406 12.9233 12.1874 12.9233H2.81247ZM18.7501 19.7174C17.2861 19.7174 16.165 19.4937 15.3065 19.1511C15.734 18.4409 15.9647 17.7584 16.0903 17.2265C16.1658 16.9067 16.2055 16.6325 16.2265 16.4257C16.237 16.3218 16.2428 16.2338 16.2461 16.1643C16.2477 16.1295 16.2487 16.0991 16.2493 16.0736L16.25 16.0389L16.2501 16.0242V16.0177V16.0145C16.2501 16.0105 16.2501 16.0115 16.2501 16.0115V15.7027C16.2501 14.6254 15.8207 13.6473 15.122 12.9261C15.1643 12.9242 15.2071 12.9233 15.2501 12.9233H22.25C23.7688 12.9233 25 14.14 25 15.6409C25 15.6409 25 19.7174 18.7501 19.7174Z" fill="#1371FF"/>
</svg>
