<svg width="14" height="13" viewBox="0 0 14 13" fill="none" xmlns="http://www.w3.org/2000/svg">
<path id="Vector" d="M0 1.79761C0 1.54671 0.0884998 1.30607 0.24603 1.12865C0.403561 0.951235 0.617218 0.851563 0.84 0.851562H13.16C13.3828 0.851562 13.5964 0.951235 13.754 1.12865C13.9115 1.30607 14 1.54671 14 1.79761C14 2.04852 13.9115 2.28915 13.754 2.46657C13.5964 2.64399 13.3828 2.74366 13.16 2.74366H0.84C0.617218 2.74366 0.403561 2.64399 0.24603 2.46657C0.0884998 2.28915 0 2.04852 0 1.79761ZM2.24 6.84322C2.24 6.59231 2.3285 6.35168 2.48603 6.17426C2.64356 5.99684 2.85722 5.89717 3.08 5.89717H10.92C11.1428 5.89717 11.3564 5.99684 11.514 6.17426C11.6715 6.35168 11.76 6.59231 11.76 6.84322C11.76 7.09413 11.6715 7.33476 11.514 7.51218C11.3564 7.68959 11.1428 7.78927 10.92 7.78927H3.08C2.85722 7.78927 2.64356 7.68959 2.48603 7.51218C2.3285 7.33476 2.24 7.09413 2.24 6.84322ZM4.48 11.8888C4.48 11.6379 4.5685 11.3973 4.72603 11.2199C4.88356 11.0424 5.09722 10.9428 5.32 10.9428H8.68C8.90278 10.9428 9.11644 11.0424 9.27397 11.2199C9.4315 11.3973 9.52 11.6379 9.52 11.8888C9.52 12.1397 9.4315 12.3804 9.27397 12.5578C9.11644 12.7352 8.90278 12.8349 8.68 12.8349H5.32C5.09722 12.8349 4.88356 12.7352 4.72603 12.5578C4.5685 12.3804 4.48 12.1397 4.48 11.8888Z" fill="#80A4D9"/>
</svg>
