<svg width="22" height="23" viewBox="0 0 22 23" fill="none" xmlns="http://www.w3.org/2000/svg">
<path d="M8.48571 0.570312C7.27069 0.570312 6.28571 1.55528 6.28571 2.77031V6.85603H2.2C0.984971 6.85603 0 7.841 0 9.05603V14.0846C0 15.2996 0.984971 16.2846 2.2 16.2846H6.28571V20.3703C6.28571 21.5853 7.27069 22.5703 8.48571 22.5703H13.5143C14.7293 22.5703 15.7143 21.5853 15.7143 20.3703V16.2846H19.8C21.015 16.2846 22 15.2996 22 14.0846V9.05603C22 7.841 21.015 6.85603 19.8 6.85603H15.7143V2.77031C15.7143 1.55528 14.7293 0.570312 13.5143 0.570312H8.48571Z" fill="white"/>
</svg>
