<svg width="15" height="17" viewBox="0 0 15 17" fill="none" xmlns="http://www.w3.org/2000/svg">
<path d="M14.4146 7.51118H13.3976C13.2646 6.01651 12.6545 4.61839 11.6719 3.55663C10.6893 2.49486 9.39544 1.83563 8.0122 1.69199V0.592988C8.0122 0.435718 7.95438 0.284889 7.85146 0.173682C7.74855 0.0624753 7.60896 0 7.46341 0C7.31787 0 7.17828 0.0624753 7.07537 0.173682C6.97245 0.284889 6.91463 0.435718 6.91463 0.592988V1.69199C5.53744 1.84281 4.25137 2.50539 3.2759 3.56664C2.30044 4.6279 1.69604 6.02205 1.56585 7.51118H0.548781C0.476714 7.51118 0.405352 7.52652 0.338771 7.55632C0.27219 7.58612 0.211693 7.6298 0.160734 7.68486C0.109775 7.73992 0.0693522 7.80529 0.0417734 7.87724C0.0141946 7.94918 0 8.02629 0 8.10417C0 8.18204 0.0141946 8.25915 0.0417734 8.33109C0.0693522 8.40304 0.109775 8.46841 0.160734 8.52347C0.211693 8.57854 0.27219 8.62221 0.338771 8.65202C0.405352 8.68182 0.476714 8.69715 0.548781 8.69715H1.56585C1.69878 10.1918 2.30887 11.5899 3.29148 12.6517C4.27409 13.7135 5.56798 14.3727 6.95122 14.5163V15.6153C6.95122 15.7726 7.00904 15.9234 7.11195 16.0347C7.21487 16.1459 7.35445 16.2083 7.5 16.2083C7.64555 16.2083 7.78513 16.1459 7.88805 16.0347C7.99096 15.9234 8.04878 15.7726 8.04878 15.6153V14.5163C9.43152 14.3712 10.7246 13.7115 11.707 12.6501C12.6893 11.5886 13.2999 10.1913 13.4341 8.69715H14.4512C14.5233 8.69715 14.5946 8.68182 14.6612 8.65202C14.7278 8.62221 14.7883 8.57854 14.8393 8.52347C14.8902 8.46841 14.9306 8.40304 14.9582 8.33109C14.9858 8.25915 15 8.18204 15 8.10417C15 8.02629 14.9858 7.94918 14.9582 7.87724C14.9306 7.80529 14.8902 7.73992 14.8393 7.68486C14.7883 7.6298 14.7278 7.58612 14.6612 7.55632C14.5946 7.52652 14.5233 7.51118 14.4512 7.51118H14.4146ZM7.46341 13.3541C6.50249 13.3541 5.56314 13.0462 4.76416 12.4693C3.96517 11.8924 3.34244 11.0725 2.97471 10.1132C2.60698 9.15393 2.51077 8.09834 2.69823 7.07996C2.8857 6.06157 3.34843 5.12613 4.02791 4.39191C4.70739 3.6577 5.5731 3.15769 6.51556 2.95512C7.45802 2.75255 8.43491 2.85652 9.3227 3.25387C10.2105 3.65123 10.9693 4.32412 11.5031 5.18747C12.037 6.05081 12.322 7.06583 12.322 8.10417C12.322 9.49726 11.8103 10.8334 10.8994 11.8192C9.98842 12.805 8.75265 13.3599 7.46341 13.362V13.3541Z" fill="#1371FF"/>
<path d="M10.7787 8.11202C10.7787 8.82231 10.5837 9.51662 10.2183 10.1071C9.85296 10.6976 9.33371 11.1576 8.72628 11.4291C8.11884 11.7005 7.45054 11.7712 6.80594 11.632C6.16135 11.4929 5.56945 11.1502 5.10516 10.6474C4.64087 10.1446 4.32506 9.50428 4.19771 8.80745C4.07036 8.11062 4.13719 7.38864 4.38974 6.73287C4.64229 6.07711 5.06922 5.51704 5.61647 5.12357C6.16372 4.7301 6.80671 4.52091 7.46404 4.52247C7.89994 4.52247 8.33156 4.61537 8.73418 4.79586C9.13681 4.97635 9.50254 5.24088 9.81043 5.5743C10.1183 5.90773 10.3623 6.3035 10.5285 6.73896C10.6946 7.17442 10.7796 7.64101 10.7787 8.11202Z" fill="#1371FF"/>
</svg>
