<svg width="15" height="16" viewBox="0 0 15 16" fill="none" xmlns="http://www.w3.org/2000/svg">
<g id="Group 205">
<path id="Vector" d="M14.4146 7.79409H13.3976C13.2646 6.41277 12.6545 5.12068 11.6719 4.13944C10.6893 3.1582 9.39544 2.54896 8.0122 2.41621V1.40056C8.0122 1.25521 7.95438 1.11582 7.85146 1.01305C7.74855 0.910276 7.60896 0.852539 7.46341 0.852539C7.31787 0.852539 7.17828 0.910276 7.07537 1.01305C6.97245 1.11582 6.91463 1.25521 6.91463 1.40056V2.41621C5.53744 2.5556 4.25137 3.16792 3.2759 4.1487C2.30044 5.12947 1.69604 6.4179 1.56585 7.79409H0.548781C0.476714 7.79409 0.405352 7.80827 0.338771 7.83581C0.27219 7.86335 0.211693 7.90371 0.160734 7.9546C0.109775 8.00549 0.0693522 8.0659 0.0417734 8.13239C0.0141946 8.19888 0 8.27014 0 8.34211C0 8.41407 0.0141946 8.48534 0.0417734 8.55182C0.0693522 8.61831 0.109775 8.67873 0.160734 8.72961C0.211693 8.7805 0.27219 8.82087 0.338771 8.84841C0.405352 8.87595 0.476714 8.89013 0.548781 8.89013H1.56585C1.69878 10.2714 2.30887 11.5635 3.29148 12.5448C4.27409 13.526 5.56798 14.1353 6.95122 14.268V15.2837C6.95122 15.429 7.00904 15.5684 7.11195 15.6712C7.21487 15.7739 7.35445 15.8317 7.5 15.8317C7.64555 15.8317 7.78513 15.7739 7.88805 15.6712C7.99096 15.5684 8.04878 15.429 8.04878 15.2837V14.268C9.43152 14.1339 10.7246 13.5242 11.707 12.5432C12.6893 11.5623 13.2999 10.2709 13.4341 8.89013H14.4512C14.5233 8.89013 14.5946 8.87595 14.6612 8.84841C14.7278 8.82087 14.7883 8.7805 14.8393 8.72961C14.8902 8.67873 14.9306 8.61831 14.9582 8.55182C14.9858 8.48534 15 8.41407 15 8.34211C15 8.27014 14.9858 8.19888 14.9582 8.13239C14.9306 8.0659 14.8902 8.00549 14.8393 7.9546C14.7883 7.90371 14.7278 7.86335 14.6612 7.83581C14.5946 7.80827 14.5233 7.79409 14.4512 7.79409H14.4146ZM7.46341 13.1939C6.50249 13.1939 5.56314 12.9093 4.76416 12.3762C3.96517 11.8431 3.34244 11.0854 2.97471 10.1988C2.60698 9.31226 2.51077 8.33673 2.69823 7.39557C2.8857 6.45442 3.34843 5.58992 4.02791 4.91138C4.70739 4.23285 5.5731 3.77076 6.51556 3.58355C7.45802 3.39635 8.43491 3.49243 9.3227 3.85965C10.2105 4.22687 10.9693 4.84873 11.5031 5.6466C12.037 6.44447 12.322 7.38252 12.322 8.34211C12.322 9.62955 11.8103 10.8644 10.8994 11.7754C9.98842 12.6865 8.75265 13.1993 7.46341 13.2012V13.1939Z" fill="white"/>
<path id="Vector_2" d="M10.7767 8.34957C10.7767 9.00598 10.5817 9.64764 10.2164 10.1933C9.85101 10.739 9.33176 11.1642 8.72432 11.4151C8.11689 11.6659 7.44858 11.7312 6.80399 11.6026C6.15939 11.474 5.56749 11.1573 5.1032 10.6927C4.63891 10.228 4.32311 9.63623 4.19575 8.99225C4.0684 8.34827 4.13523 7.68104 4.38779 7.07501C4.64034 6.46897 5.06726 5.95138 5.61452 5.58775C6.16177 5.22412 6.80475 5.03079 7.46208 5.03223C7.89798 5.03223 8.3296 5.11809 8.73223 5.28489C9.13486 5.45169 9.50059 5.69616 9.80847 6.0043C10.1164 6.31244 10.3604 6.6782 10.5265 7.08063C10.6927 7.48306 10.7777 7.91427 10.7767 8.34957Z" fill="white"/>
</g>
</svg>
