<svg width="38" height="36" viewBox="0 0 38 36" fill="none" xmlns="http://www.w3.org/2000/svg">
<path d="M34.2 11.9453C34.2 13.1056 33.6996 14.2184 32.8088 15.0389C31.918 15.8594 30.7098 16.3203 29.45 16.3203C27.398 16.3203 25.65 15.1128 25.004 13.4503C24.168 14.1328 23.066 14.5703 21.85 14.5703C20.786 14.5703 19.798 14.2378 19 13.6953C18.202 14.2378 17.233 14.5703 16.15 14.5703C14.934 14.5703 13.832 14.1328 12.996 13.4503C12.35 15.1128 10.602 16.3203 8.55 16.3203C7.29022 16.3203 6.08204 15.8594 5.19124 15.0389C4.30045 14.2184 3.8 13.1056 3.8 11.9453C3.8 9.77531 5.529 7.97281 7.79 7.64031C7.676 7.34281 7.6 7.02781 7.6 6.69531C7.6 5.99912 7.90027 5.33144 8.43474 4.83916C8.96922 4.34687 9.69413 4.07031 10.45 4.07031C10.83 4.07031 11.191 4.14031 11.514 4.26281C11.837 3.14281 12.939 2.32031 14.25 2.32031C14.725 2.32031 15.2 2.44281 15.542 2.61781C16.15 1.44531 17.461 0.570312 19 0.570312C20.539 0.570312 21.85 1.44531 22.458 2.61781C22.8 2.44281 23.275 2.32031 23.75 2.32031C25.061 2.32031 26.163 3.14281 26.486 4.26281C26.809 4.14031 27.17 4.07031 27.55 4.07031C28.3059 4.07031 29.0308 4.34687 29.5653 4.83916C30.0997 5.33144 30.4 5.99912 30.4 6.69531C30.4 7.02781 30.324 7.34281 30.21 7.64031C32.471 7.97281 34.2 9.77531 34.2 11.9453ZM15.2 18.0703C14.6961 18.0703 14.2128 18.2547 13.8565 18.5829C13.5002 18.9111 13.3 19.3562 13.3 19.8203C13.3 20.2844 13.5002 20.7296 13.8565 21.0577C14.2128 21.3859 14.6961 21.5703 15.2 21.5703C15.7039 21.5703 16.1872 21.3859 16.5435 21.0577C16.8998 20.7296 17.1 20.2844 17.1 19.8203C17.1 19.3562 16.8998 18.9111 16.5435 18.5829C16.1872 18.2547 15.7039 18.0703 15.2 18.0703ZM22.8 18.0703C22.2961 18.0703 21.8128 18.2547 21.4565 18.5829C21.1002 18.9111 20.9 19.3562 20.9 19.8203C20.9 20.2844 21.1002 20.7296 21.4565 21.0577C21.8128 21.3859 22.2961 21.5703 22.8 21.5703C23.3039 21.5703 23.7872 21.3859 24.1435 21.0577C24.4998 20.7296 24.7 20.2844 24.7 19.8203C24.7 19.3562 24.4998 18.9111 24.1435 18.5829C23.7872 18.2547 23.3039 18.0703 22.8 18.0703ZM34.637 15.7253C33.421 17.1428 31.559 18.0703 29.45 18.0703C28.595 18.0703 27.778 17.8953 26.999 17.5978C26.98 22.0603 26.277 27.4503 23.655 30.2328C22.667 31.2653 21.47 31.8253 19.95 32.0003V28.5703H18.05V32.0003C16.53 31.8253 15.333 31.2828 14.345 30.2328C11.704 27.4328 11.001 22.0778 10.982 17.6153C10.222 17.8953 9.405 18.0703 8.55 18.0703C6.441 18.0703 4.579 17.1428 3.363 15.7253C1.672 17.2828 0 18.0703 0 18.0703C0 18.0703 1.9 21.5703 5.7 21.5703C6.384 21.5703 6.916 21.5003 7.372 21.4128C8.018 28.0978 10.602 35.5703 19 35.5703C27.398 35.5703 29.982 28.0978 30.628 21.4128C31.084 21.5003 31.616 21.5703 32.3 21.5703C36.1 21.5703 38 18.0703 38 18.0703C38 18.0703 36.328 17.2828 34.637 15.7253Z" fill="#1371FF"/>
</svg>
