<svg xmlns="http://www.w3.org/2000/svg" width="38" height="35" viewBox="0 0 38 35" fill="none">
<path d="M34.2 11.375C34.2 12.5353 33.6996 13.6481 32.8088 14.4686C31.918 15.2891 30.7098 15.75 29.45 15.75C27.398 15.75 25.65 14.5425 25.004 12.88C24.168 13.5625 23.066 14 21.85 14C20.786 14 19.798 13.6675 19 13.125C18.202 13.6675 17.233 14 16.15 14C14.934 14 13.832 13.5625 12.996 12.88C12.35 14.5425 10.602 15.75 8.55 15.75C7.29022 15.75 6.08204 15.2891 5.19124 14.4686C4.30045 13.6481 3.8 12.5353 3.8 11.375C3.8 9.205 5.529 7.4025 7.79 7.07C7.676 6.7725 7.6 6.4575 7.6 6.125C7.6 5.42881 7.90027 4.76113 8.43474 4.26884C8.96922 3.77656 9.69413 3.5 10.45 3.5C10.83 3.5 11.191 3.57 11.514 3.6925C11.837 2.5725 12.939 1.75 14.25 1.75C14.725 1.75 15.2 1.8725 15.542 2.0475C16.15 0.875 17.461 0 19 0C20.539 0 21.85 0.875 22.458 2.0475C22.8 1.8725 23.275 1.75 23.75 1.75C25.061 1.75 26.163 2.5725 26.486 3.6925C26.809 3.57 27.17 3.5 27.55 3.5C28.3059 3.5 29.0308 3.77656 29.5653 4.26884C30.0997 4.76113 30.4 5.42881 30.4 6.125C30.4 6.4575 30.324 6.7725 30.21 7.07C32.471 7.4025 34.2 9.205 34.2 11.375ZM15.2 17.5C14.6961 17.5 14.2128 17.6844 13.8565 18.0126C13.5002 18.3408 13.3 18.7859 13.3 19.25C13.3 19.7141 13.5002 20.1592 13.8565 20.4874C14.2128 20.8156 14.6961 21 15.2 21C15.7039 21 16.1872 20.8156 16.5435 20.4874C16.8998 20.1592 17.1 19.7141 17.1 19.25C17.1 18.7859 16.8998 18.3408 16.5435 18.0126C16.1872 17.6844 15.7039 17.5 15.2 17.5ZM22.8 17.5C22.2961 17.5 21.8128 17.6844 21.4565 18.0126C21.1002 18.3408 20.9 18.7859 20.9 19.25C20.9 19.7141 21.1002 20.1592 21.4565 20.4874C21.8128 20.8156 22.2961 21 22.8 21C23.3039 21 23.7872 20.8156 24.1435 20.4874C24.4998 20.1592 24.7 19.7141 24.7 19.25C24.7 18.7859 24.4998 18.3408 24.1435 18.0126C23.7872 17.6844 23.3039 17.5 22.8 17.5ZM34.637 15.155C33.421 16.5725 31.559 17.5 29.45 17.5C28.595 17.5 27.778 17.325 26.999 17.0275C26.98 21.49 26.277 26.88 23.655 29.6625C22.667 30.695 21.47 31.255 19.95 31.43V28H18.05V31.43C16.53 31.255 15.333 30.7125 14.345 29.6625C11.704 26.8625 11.001 21.5075 10.982 17.045C10.222 17.325 9.405 17.5 8.55 17.5C6.441 17.5 4.579 16.5725 3.363 15.155C1.672 16.7125 0 17.5 0 17.5C0 17.5 1.9 21 5.7 21C6.384 21 6.916 20.93 7.372 20.8425C8.018 27.5275 10.602 35 19 35C27.398 35 29.982 27.5275 30.628 20.8425C31.084 20.93 31.616 21 32.3 21C36.1 21 38 17.5 38 17.5C38 17.5 36.328 16.7125 34.637 15.155Z" fill="white"/>
</svg>