<svg width="28" height="28" viewBox="0 0 28 28" fill="none" xmlns="http://www.w3.org/2000/svg">
<path id="Vector" fill-rule="evenodd" clip-rule="evenodd" d="M14.3789 3.65132C12.4899 3.65097 10.6339 4.14539 8.99608 5.08522C7.35825 6.02505 5.99591 7.37742 5.04504 9.00734C4.09417 10.6373 3.58802 12.4877 3.57712 14.3741C3.56622 16.2604 4.05094 18.1165 4.98292 19.7573C5.61284 18.9398 6.4226 18.2779 7.34958 17.8227C8.27656 17.3676 9.29594 17.1315 10.3289 17.1325H18.4289C19.4619 17.1315 20.4812 17.3676 21.4082 17.8227C22.3352 18.2779 23.145 18.9398 23.7749 19.7573C24.7069 18.1165 25.1916 16.2604 25.1807 14.3741C25.1698 12.4877 24.6636 10.6373 23.7128 9.00734C22.7619 7.37742 21.3996 6.02505 19.7617 5.08522C18.1239 4.14539 16.2679 3.65097 14.3789 3.65132ZM25.1019 22.6275C26.9069 20.2777 27.8832 17.3978 27.8789 14.4363C27.8789 6.99062 21.8349 0.955078 14.3789 0.955078C6.92287 0.955078 0.878921 6.99062 0.878921 14.4363C0.874465 17.3978 1.85079 20.2777 3.65587 22.6275L3.64912 22.6517L4.12837 23.2085C5.39451 24.6867 6.96658 25.8732 8.73623 26.6862C10.5059 27.4991 12.431 27.9192 14.3789 27.9175C17.1158 27.9225 19.7889 27.0923 22.0401 25.5381C22.9999 24.8759 23.8702 24.0929 24.6294 23.2085L25.1087 22.6517L25.1019 22.6275ZM14.3789 6.34756C13.3048 6.34756 12.2746 6.77366 11.5151 7.53213C10.7556 8.2906 10.3289 9.31929 10.3289 10.3919C10.3289 11.4646 10.7556 12.4933 11.5151 13.2517C12.2746 14.0102 13.3048 14.4363 14.3789 14.4363C15.453 14.4363 16.4832 14.0102 17.2427 13.2517C18.0022 12.4933 18.4289 11.4646 18.4289 10.3919C18.4289 9.31929 18.0022 8.2906 17.2427 7.53213C16.4832 6.77366 15.453 6.34756 14.3789 6.34756Z" fill="#005BE2"/>
</svg>
