<svg xmlns="http://www.w3.org/2000/svg" width="27" height="31" viewBox="0 0 27 31" fill="none">
  <path fill-rule="evenodd" clip-rule="evenodd" d="M13.5 3.83985C11.611 3.83948 9.755 4.38028 8.11717 5.4083C6.47934 6.43631 5.117 7.91557 4.16613 9.69843C3.21526 11.4813 2.70911 13.5054 2.69821 15.5687C2.68731 17.632 3.17204 19.6623 4.10401 21.4571C4.73393 20.5628 5.54369 19.8388 6.47067 19.341C7.39766 18.8431 8.41704 18.5848 9.45 18.586H17.55C18.583 18.5848 19.6023 18.8431 20.5293 19.341C21.4563 19.8388 22.2661 20.5628 22.896 21.4571C23.828 19.6623 24.3127 17.632 24.3018 15.5687C24.2909 13.5054 23.7847 11.4813 22.8339 9.69843C21.883 7.91557 20.5207 6.43631 18.8828 5.4083C17.245 4.38028 15.389 3.83948 13.5 3.83985ZM24.223 24.5965C26.028 22.0262 27.0043 18.8762 27 15.6368C27 7.49248 20.956 0.890625 13.5 0.890625C6.04396 0.890625 1.51919e-05 7.49248 1.51919e-05 15.6368C-0.00444174 18.8762 0.971887 22.0263 2.77696 24.5965L2.77021 24.6231L3.24946 25.2321C4.5156 26.849 6.08768 28.1468 7.85732 29.0361C9.62696 29.9253 11.5521 30.3848 13.5 30.3829C16.2369 30.3884 18.91 29.4803 21.1612 27.7802C22.121 27.0559 22.9913 26.1995 23.7505 25.2321L24.2298 24.6231L24.223 24.5965ZM13.5 6.78908C12.4259 6.78908 11.3957 7.25517 10.6362 8.0848C9.8767 8.91443 9.45 10.0397 9.45 11.2129C9.45 12.3862 9.8767 13.5114 10.6362 14.3411C11.3957 15.1707 12.4259 15.6368 13.5 15.6368C14.5741 15.6368 15.6043 15.1707 16.3638 14.3411C17.1233 13.5114 17.55 12.3862 17.55 11.2129C17.55 10.0397 17.1233 8.91443 16.3638 8.0848C15.6043 7.25517 14.5741 6.78908 13.5 6.78908Z" fill="white"/>
</svg>