<svg width="63" height="63" viewBox="0 0 63 63" fill="none" xmlns="http://www.w3.org/2000/svg">
<g id="streamline:waiting-appointments-calendar-solid" clip-path="url(#clip0_1_7267)">
<path id="Vector" fill-rule="evenodd" clip-rule="evenodd" d="M20.25 4.5C20.25 3.30653 19.7759 2.16193 18.932 1.31802C18.0881 0.474106 16.9435 0 15.75 0C14.5565 0 13.4119 0.474106 12.568 1.31802C11.7241 2.16193 11.25 3.30653 11.25 4.5V9H6.75C4.95979 9 3.2429 9.71116 1.97703 10.977C0.711159 12.2429 0 13.9598 0 15.75L0 56.25C0 58.0402 0.711159 59.7571 1.97703 61.023C3.2429 62.2888 4.95979 63 6.75 63H56.25C58.0402 63 59.7571 62.2888 61.023 61.023C62.2888 59.7571 63 58.0402 63 56.25V15.75C63 13.9598 62.2888 12.2429 61.023 10.977C59.7571 9.71116 58.0402 9 56.25 9H51.75V4.5C51.75 3.30653 51.2759 2.16193 50.432 1.31802C49.5881 0.474106 48.4435 0 47.25 0C46.0565 0 44.9119 0.474106 44.068 1.31802C43.2241 2.16193 42.75 3.30653 42.75 4.5V9H20.25V4.5ZM26.865 24.426C26.865 23.4495 27.657 22.662 28.6335 22.662H34.371C35.343 22.662 36.135 23.4495 36.135 24.426V31.446H43.155C44.1315 31.446 44.919 32.238 44.919 33.21V38.9475C44.9196 39.1795 44.8744 39.4094 44.786 39.6239C44.6976 39.8385 44.5678 40.0335 44.4039 40.1977C44.2401 40.362 44.0454 40.4924 43.8311 40.5813C43.6168 40.6702 43.387 40.716 43.155 40.716H36.135V47.736C36.135 48.2038 35.9492 48.6525 35.6183 48.9833C35.2875 49.3142 34.8388 49.5 34.371 49.5H28.629C28.1612 49.5 27.7125 49.3142 27.3817 48.9833C27.0508 48.6525 26.865 48.2038 26.865 47.736V40.716H19.845C19.613 40.716 19.3832 40.6702 19.1689 40.5813C18.9546 40.4924 18.7599 40.362 18.5961 40.1977C18.4322 40.0335 18.3024 39.8385 18.214 39.6239C18.1256 39.4094 18.0804 39.1795 18.081 38.9475V33.21C18.081 32.238 18.8685 31.446 19.845 31.446H26.865V24.426Z" fill="white" fill-opacity="0.5"/>
</g>
<defs>
<clipPath id="clip0_1_7267">
<rect width="63" height="63" fill="white"/>
</clipPath>
</defs>
</svg>
