<svg width="84" height="84" viewBox="0 0 84 84" fill="none" xmlns="http://www.w3.org/2000/svg">
<path d="M82.62 75.9955L66.7585 60.1806C71.8761 53.6608 74.6529 45.6097 74.6426 37.3213C74.6426 29.9399 72.4538 22.7242 68.3529 16.5867C64.2519 10.4493 58.4231 5.66569 51.6036 2.84093C44.784 0.0161706 37.2799 -0.722916 30.0403 0.717135C22.8007 2.15719 16.1507 5.7117 10.9312 10.9312C5.7117 16.1507 2.15719 22.8007 0.717135 30.0403C-0.722916 37.2799 0.0161706 44.784 2.84093 51.6036C5.66569 58.4231 10.4493 64.2519 16.5867 68.3529C22.7242 72.4538 29.9399 74.6426 37.3213 74.6426C45.6097 74.6529 53.6608 71.8761 60.1806 66.7585L75.9955 82.62C76.4292 83.0573 76.9452 83.4044 77.5137 83.6412C78.0822 83.8781 78.6919 84 79.3078 84C79.9236 84 80.5334 83.8781 81.1019 83.6412C81.6704 83.4044 82.1864 83.0573 82.62 82.62C83.0573 82.1864 83.4044 81.6704 83.6412 81.1019C83.8781 80.5334 84 79.9236 84 79.3078C84 78.6919 83.8781 78.0822 83.6412 77.5137C83.4044 76.9452 83.0573 76.4292 82.62 75.9955ZM9.33034 37.3213C9.33034 31.7852 10.972 26.3735 14.0477 21.7704C17.1234 17.1673 21.495 13.5796 26.6096 11.461C31.7243 9.34246 37.3524 8.78814 42.7821 9.86818C48.2118 10.9482 53.1993 13.6141 57.1139 17.5287C61.0285 21.4433 63.6944 26.4308 64.7745 31.8606C65.8545 37.2903 65.3002 42.9183 63.1816 48.033C61.063 53.1477 57.4754 57.5193 52.8723 60.595C48.2692 63.6707 42.8574 65.3123 37.3213 65.3123C29.8977 65.3123 22.778 62.3633 17.5287 57.1139C12.2794 51.8646 9.33034 44.745 9.33034 37.3213Z" fill="#AEAEAE"/>
</svg>
