<svg width="158" height="74" viewBox="0 0 158 74" fill="none" xmlns="http://www.w3.org/2000/svg">
<g filter="url(#filter0_d_1_8331)">
<path d="M1.096 12.83C2.3 12.486 3.53267 12.056 4.794 11.54C6.05533 11.024 7.202 10.336 8.234 9.476C9.32333 8.55866 10.212 7.46933 10.9 6.208C11.588 4.88933 11.932 3.31266 11.932 1.478V0.617996H37.732V1.478C37.732 3.37 37.9613 4.97533 38.42 6.294C38.936 7.55533 39.5953 8.616 40.398 9.476C41.2007 10.336 42.1467 11.024 43.236 11.54C44.3827 12.056 45.6153 12.486 46.934 12.83V24.182C44.526 24.182 42.0893 24.0673 39.624 23.838C37.216 23.5513 34.8367 23.064 32.486 22.376C30.1927 21.6307 27.9567 20.6273 25.778 19.366C23.5993 18.1047 21.5353 16.442 19.586 14.378L17.78 15.926C18.4107 16.614 19.0987 17.2733 19.844 17.904C20.5893 18.5347 21.392 19.1653 22.252 19.796C19.328 21.172 16.0027 22.2613 12.276 23.064C8.54933 23.8093 4.82267 24.182 1.096 24.182V12.83ZM11.416 42.156V38.888C9.63867 38.888 7.89 38.9167 6.17 38.974C4.45 38.974 2.75867 38.974 1.096 38.974V25.644C4.76533 25.644 8.60667 25.6727 12.62 25.73C16.6333 25.73 20.704 25.73 24.832 25.73C28.96 25.73 33.088 25.73 37.216 25.73C41.344 25.6727 45.3287 25.5867 49.17 25.472V0.617996H74.024V42.156H49.17V37.856C46.762 37.9707 44.354 38.0853 41.946 38.2C39.538 38.2573 37.0727 38.3433 34.55 38.458V42.156H11.416ZM1.096 43.532H25.95V46.8H49.17V43.532H74.024V71.31H8.492C5.912 71.31 4.02 70.708 2.816 69.504C1.66933 68.3573 1.096 66.494 1.096 63.914V43.532ZM25.52 58.324C27.1827 58.84 29.0747 59.2987 31.196 59.7C33.3173 60.044 35.496 60.3307 37.732 60.56C39.968 60.732 42.1467 60.8753 44.268 60.99C46.3893 61.1047 48.2527 61.162 49.858 61.162V58.582C48.2527 58.582 46.418 58.5247 44.354 58.41C42.3473 58.2953 40.2833 58.1233 38.162 57.894C36.0407 57.6073 33.948 57.292 31.884 56.948C29.8773 56.604 28.0713 56.2027 26.466 55.744L25.52 58.324ZM80.2093 0.617996H123.295V16.442C122.034 16.786 120.572 17.0727 118.909 17.302C117.247 17.5313 115.527 17.732 113.749 17.904C111.972 18.0187 110.166 18.1047 108.331 18.162C106.554 18.2193 104.891 18.248 103.343 18.248V20.828C104.949 20.828 106.726 20.7993 108.675 20.742C110.625 20.6273 112.603 20.4553 114.609 20.226C116.616 19.9967 118.623 19.7387 120.629 19.452C122.693 19.108 124.671 18.7067 126.563 18.248V0.617996H149.697V8.702H156.233V28.998H149.697V39.232H126.563V35.878C123.353 36.9673 119.053 37.8273 113.663 38.458C108.274 39.0313 102.397 39.318 96.0333 39.318C92.9946 39.318 90.4719 39.0313 88.4653 38.458C86.4586 37.8847 84.8246 37.0247 83.5633 35.878C82.3593 34.7313 81.4993 33.298 80.9833 31.578C80.4673 29.8007 80.2093 27.7367 80.2093 25.386V0.617996ZM126.563 71.224V60.646H80.2093V41.554H149.697V71.224H126.563Z" fill="#005BE2"/>
</g>
<defs>
<filter id="filter0_d_1_8331" x="0.225475" y="0.618164" width="156.881" height="72.4363" filterUnits="userSpaceOnUse" color-interpolation-filters="sRGB">
<feFlood flood-opacity="0" result="BackgroundImageFix"/>
<feColorMatrix in="SourceAlpha" type="matrix" values="0 0 0 0 0 0 0 0 0 0 0 0 0 0 0 0 0 0 127 0" result="hardAlpha"/>
<feOffset dy="0.872181"/>
<feGaussianBlur stdDeviation="0.436091"/>
<feComposite in2="hardAlpha" operator="out"/>
<feColorMatrix type="matrix" values="0 0 0 0 0 0 0 0 0 0 0 0 0 0 0 0 0 0 0.25 0"/>
<feBlend mode="normal" in2="BackgroundImageFix" result="effect1_dropShadow_1_8331"/>
<feBlend mode="normal" in="SourceGraphic" in2="effect1_dropShadow_1_8331" result="shape"/>
</filter>
</defs>
</svg>
