<svg width="78" height="71" viewBox="0 0 78 71" fill="none" xmlns="http://www.w3.org/2000/svg">
<path id="Vector" d="M66.325 64.7703C66.821 65.2654 67.1587 65.8962 67.2956 66.5831C67.4325 67.2699 67.3624 67.9818 67.0941 68.6288C66.8257 69.2758 66.3713 69.8288 65.7883 70.2179C65.2052 70.607 64.5197 70.8146 63.8184 70.8146C63.1172 70.8146 62.4317 70.607 61.8486 70.2179C61.2656 69.8288 60.8111 69.2758 60.5428 68.6288C60.2745 67.9818 60.2044 67.2699 60.3413 66.5831C60.4781 65.8962 60.8159 65.2654 61.3119 64.7703C61.9767 64.1066 62.8783 63.7337 63.8184 63.7337C64.7586 63.7337 65.6602 64.1066 66.325 64.7703ZM76.9612 54.1489C77.4571 54.644 77.7949 55.2749 77.9318 55.9617C78.0687 56.6485 77.9985 57.3604 77.7302 58.0074C77.4619 58.6544 77.0075 59.2074 76.4244 59.5965C75.8414 59.9856 75.1559 60.1932 74.4546 60.1932C73.7534 60.1932 73.0678 59.9856 72.4848 59.5965C71.9017 59.2074 71.4473 58.6544 71.179 58.0074C70.9107 57.3604 70.8405 56.6485 70.9774 55.9617C71.1143 55.2749 71.4521 54.644 71.948 54.1489C72.6129 53.4852 73.5145 53.1123 74.4546 53.1123C75.3947 53.1123 76.2963 53.4852 76.9612 54.1489ZM62.7796 50.6085C63.2756 51.1036 63.6134 51.7344 63.7502 52.4212C63.8871 53.108 63.817 53.82 63.5487 54.467C63.2804 55.114 62.8259 55.667 62.2429 56.056C61.6598 56.4451 60.9743 56.6528 60.2731 56.6528C59.5718 56.6528 58.8863 56.4451 58.3032 56.056C57.7202 55.667 57.2658 55.114 56.9974 54.467C56.7291 53.82 56.659 53.108 56.7959 52.4212C56.9328 51.7344 57.2705 51.1036 57.7665 50.6085C58.4313 49.9447 59.3329 49.5719 60.2731 49.5719C61.2132 49.5719 62.1148 49.9447 62.7796 50.6085ZM24.2874 0.0117989C27.6406 -0.0910725 30.9805 0.479598 34.1087 1.68996C37.237 2.90033 40.09 4.72573 42.4985 7.05791C44.907 9.39009 46.8219 12.1815 48.1298 15.2667C49.4376 18.3518 50.1117 21.6679 50.112 25.018V25.0747L56.3873 38.3797C56.6432 38.9194 56.7583 39.515 56.7218 40.111C56.6854 40.7071 56.4985 41.2842 56.1787 41.7888C55.8588 42.2933 55.4164 42.7089 54.8925 42.9968C54.3686 43.2847 53.7803 43.4356 53.1823 43.4355H50.112V49.8083C50.1101 51.6234 49.387 53.3636 48.1014 54.6467C46.8158 55.9299 45.0728 56.6511 43.2552 56.652H40.1813V63.0249C40.1813 63.9638 39.8078 64.8644 39.1429 65.5283C38.478 66.1923 37.5763 66.5653 36.636 66.5653C35.6957 66.5653 34.7939 66.1923 34.129 65.5283C33.4641 64.8644 33.0906 63.9638 33.0906 63.0249V56.6025C32.1758 56.5446 31.3196 56.133 30.7037 55.4552C30.0877 54.7773 29.7605 53.8864 29.7914 52.9716C29.8223 52.0568 30.2089 51.1901 30.8692 50.5552C31.5295 49.9203 32.4115 49.5673 33.3281 49.5711L36.2814 49.6419C36.3982 49.6119 36.5166 49.5883 36.636 49.5711C36.7892 49.5913 36.9408 49.622 37.0898 49.6632L43.0212 49.8048V39.8915C43.0212 38.9525 43.3947 38.052 44.0596 37.388C44.7245 36.7241 45.6263 36.3511 46.5666 36.3511H47.5912L43.319 27.2946C43.073 26.778 42.9574 26.2091 42.9822 25.6376L43.0177 25.0216C43.0261 22.6202 42.5477 20.242 41.6112 18.0302C40.6747 15.8184 39.2994 13.8189 37.5684 12.152C35.8379 10.4813 33.7903 9.17306 31.546 8.30421C29.3017 7.43535 26.9061 7.02345 24.5001 7.09271C19.7288 7.39179 15.2567 9.5165 12.0143 13.0248C8.77188 16.533 7.00893 21.1546 7.09224 25.9279L13.5909 50.6651C13.7535 51.2847 13.7462 51.9365 13.5697 52.5522L10.2654 64.0056C10.0523 64.7435 9.60475 65.3923 8.99017 65.854C8.3756 66.3158 7.62733 66.5654 6.85824 66.5653C6.52472 66.5639 6.19302 66.5162 5.87262 66.4237C4.97039 66.1629 4.20865 65.5553 3.75465 64.7341C3.30064 63.913 3.19148 62.9456 3.45112 62.0442L6.48598 51.529L0.118462 27.5849C0.0412979 27.2877 0.00198364 26.982 0.00145721 26.675V25.9244C-0.0689468 19.3142 2.4165 12.9315 6.94032 8.10537C11.4641 3.2792 17.6777 0.37787 24.2874 0.0117989Z" fill="#005BE2" fill-opacity="0.2"/>
</svg>
