<svg width="86" height="79" viewBox="0 0 86 79" fill="none" xmlns="http://www.w3.org/2000/svg">
<path d="M77.4 25.675C77.4 28.294 76.2674 30.8058 74.2514 32.6577C72.2354 34.5096 69.5011 35.55 66.65 35.55C62.006 35.55 58.05 32.8245 56.588 29.072C54.696 30.6125 52.202 31.6 49.45 31.6C47.042 31.6 44.806 30.8495 43 29.625C41.194 30.8495 39.001 31.6 36.55 31.6C33.798 31.6 31.304 30.6125 29.412 29.072C27.95 32.8245 23.994 35.55 19.35 35.55C16.4989 35.55 13.7646 34.5096 11.7486 32.6577C9.73259 30.8058 8.6 28.294 8.6 25.675C8.6 20.777 12.513 16.7085 17.63 15.958C17.372 15.2865 17.2 14.5755 17.2 13.825C17.2 12.2536 17.8796 10.7465 19.0892 9.63539C20.2988 8.52424 21.9394 7.9 23.65 7.9C24.51 7.9 25.327 8.058 26.058 8.3345C26.789 5.8065 29.283 3.95 32.25 3.95C33.325 3.95 34.4 4.2265 35.174 4.6215C36.55 1.975 39.517 0 43 0C46.483 0 49.45 1.975 50.826 4.6215C51.6 4.2265 52.675 3.95 53.75 3.95C56.717 3.95 59.211 5.8065 59.942 8.3345C60.673 8.058 61.49 7.9 62.35 7.9C64.0606 7.9 65.7012 8.52424 66.9108 9.63539C68.1204 10.7465 68.8 12.2536 68.8 13.825C68.8 14.5755 68.628 15.2865 68.37 15.958C73.487 16.7085 77.4 20.777 77.4 25.675ZM34.4 39.5C33.2596 39.5 32.1658 39.9162 31.3594 40.6569C30.553 41.3977 30.1 42.4024 30.1 43.45C30.1 44.4976 30.553 45.5023 31.3594 46.2431C32.1658 46.9838 33.2596 47.4 34.4 47.4C35.5404 47.4 36.6342 46.9838 37.4406 46.2431C38.247 45.5023 38.7 44.4976 38.7 43.45C38.7 42.4024 38.247 41.3977 37.4406 40.6569C36.6342 39.9162 35.5404 39.5 34.4 39.5ZM51.6 39.5C50.4596 39.5 49.3659 39.9162 48.5594 40.6569C47.753 41.3977 47.3 42.4024 47.3 43.45C47.3 44.4976 47.753 45.5023 48.5594 46.2431C49.3659 46.9838 50.4596 47.4 51.6 47.4C52.7404 47.4 53.8342 46.9838 54.6406 46.2431C55.447 45.5023 55.9 44.4976 55.9 43.45C55.9 42.4024 55.447 41.3977 54.6406 40.6569C53.8342 39.9162 52.7404 39.5 51.6 39.5ZM78.389 34.207C75.637 37.4065 71.423 39.5 66.65 39.5C64.715 39.5 62.866 39.105 61.103 38.4335C61.06 48.506 59.469 60.672 53.535 66.9525C51.299 69.283 48.59 70.547 45.15 70.942V63.2H40.85V70.942C37.41 70.547 34.701 69.3225 32.465 66.9525C26.488 60.6325 24.897 48.5455 24.854 38.473C23.134 39.105 21.285 39.5 19.35 39.5C14.577 39.5 10.363 37.4065 7.611 34.207C3.784 37.7225 0 39.5 0 39.5C0 39.5 4.3 47.4 12.9 47.4C14.448 47.4 15.652 47.242 16.684 47.0445C18.146 62.1335 23.994 79 43 79C62.006 79 67.854 62.1335 69.316 47.0445C70.348 47.242 71.552 47.4 73.1 47.4C81.7 47.4 86 39.5 86 39.5C86 39.5 82.216 37.7225 78.389 34.207Z" fill="#1371FF"/>
</svg>
