<svg width="28" height="29" viewBox="0 0 28 29" fill="none" xmlns="http://www.w3.org/2000/svg">
<path d="M23.8001 3.22969H21V1.82969C21 1.45839 20.8525 1.10229 20.59 0.839739C20.3274 0.577187 19.9713 0.429688 19.6 0.429688C19.2287 0.429688 18.8726 0.577187 18.6101 0.839739C18.3475 1.10229 18.2 1.45839 18.2 1.82969V3.22969H9.80002V1.82969C9.80002 1.45839 9.65252 1.10229 9.38997 0.839739C9.12742 0.577187 8.77132 0.429688 8.40002 0.429688C8.02871 0.429688 7.67262 0.577187 7.41007 0.839739C7.14751 1.10229 7.00001 1.45839 7.00001 1.82969V3.22969H4.20001C3.0861 3.22969 2.01781 3.67219 1.23015 4.45985C0.4425 5.2475 0 6.31579 0 7.4297V24.2297C0 25.3436 0.4425 26.4119 1.23015 27.1996C2.01781 27.9872 3.0861 28.4297 4.20001 28.4297H23.8001C24.914 28.4297 25.9823 27.9872 26.7699 27.1996C27.5576 26.4119 28.0001 25.3436 28.0001 24.2297V7.4297C28.0001 6.31579 27.5576 5.2475 26.7699 4.45985C25.9823 3.67219 24.914 3.22969 23.8001 3.22969ZM25.2001 24.2297C25.2001 24.601 25.0526 24.9571 24.79 25.2197C24.5275 25.4822 24.1714 25.6297 23.8001 25.6297H4.20001C3.82871 25.6297 3.47261 25.4822 3.21006 25.2197C2.94751 24.9571 2.80001 24.601 2.80001 24.2297V14.4297H25.2001V24.2297ZM25.2001 11.6297H2.80001V7.4297C2.80001 7.0584 2.94751 6.7023 3.21006 6.43975C3.47261 6.1772 3.82871 6.0297 4.20001 6.0297H7.00001V7.4297C7.00001 7.80101 7.14751 8.1571 7.41007 8.41965C7.67262 8.68221 8.02871 8.82971 8.40002 8.82971C8.77132 8.82971 9.12742 8.68221 9.38997 8.41965C9.65252 8.1571 9.80002 7.80101 9.80002 7.4297V6.0297H18.2V7.4297C18.2 7.80101 18.3475 8.1571 18.6101 8.41965C18.8726 8.68221 19.2287 8.82971 19.6 8.82971C19.9713 8.82971 20.3274 8.68221 20.59 8.41965C20.8525 8.1571 21 7.80101 21 7.4297V6.0297H23.8001C24.1714 6.0297 24.5275 6.1772 24.79 6.43975C25.0526 6.7023 25.2001 7.0584 25.2001 7.4297V11.6297Z" fill="#005BE2"/>
</svg>
