<svg width="16" height="18" viewBox="0 0 16 18" fill="none" xmlns="http://www.w3.org/2000/svg">
<path d="M8.00002 0C12.4183 0 16 4.02944 16 9.00002C16 13.9706 12.4183 18 8.00002 18C3.58172 18 0 13.9706 0 9.00002C0 4.02944 3.58172 0 8.00002 0ZM8.00002 1.34979C4.24437 1.34979 1.19982 4.77492 1.19982 9.00002C1.19982 13.2251 4.24437 16.6502 8.00002 16.6502C11.7557 16.6502 14.8002 13.2251 14.8002 9.00002C14.8002 4.77492 11.7557 1.34979 8.00002 1.34979ZM7.99706 7.64933C8.30078 7.64915 8.55194 7.90282 8.59185 8.23226L8.59737 8.32378L8.60025 13.2745C8.60049 13.6472 8.33205 13.9496 8.00074 13.9498C7.69703 13.9501 7.44587 13.6963 7.40595 13.367L7.40044 13.2754L7.39756 8.32468C7.3974 7.95195 7.66576 7.6496 7.99706 7.64933ZM8.00034 4.50184C8.44156 4.50184 8.79918 4.90419 8.79918 5.40051C8.79918 5.89682 8.44156 6.29917 8.00034 6.29917C7.55921 6.29917 7.20159 5.89682 7.20159 5.40051C7.20159 4.90419 7.55921 4.50184 8.00034 4.50184Z" fill="#212121"/>
</svg>
