<svg width="15" height="17" viewBox="0 0 15 17" fill="none" xmlns="http://www.w3.org/2000/svg">
<path d="M14.4146 7.67209V7.67209C13.8392 7.67209 13.3685 7.22893 13.2386 6.66832C12.9741 5.52566 12.4355 4.47552 11.6719 3.63282C10.9546 2.84109 10.0714 2.26849 9.10859 1.95994C8.50079 1.76516 8.0122 1.24394 8.0122 0.605691V0.605691C8.0122 0.445052 7.95438 0.290992 7.85146 0.177403C7.74855 0.0638137 7.60896 0 7.46341 0C7.31787 0 7.17828 0.0638137 7.07537 0.177403C6.97245 0.290992 6.91463 0.445052 6.91463 0.605691V0.605691C6.91463 1.24488 6.42715 1.76766 5.8196 1.96629C4.86331 2.27893 3.98706 2.85277 3.2759 3.64305C2.51876 4.48443 1.98517 5.53066 1.72337 6.6681C1.59435 7.22867 1.124 7.67209 0.548781 7.67209V7.67209C0.476714 7.67209 0.405352 7.68775 0.338771 7.71819C0.27219 7.74863 0.211693 7.79325 0.160734 7.84949C0.109775 7.90573 0.0693522 7.9725 0.0417734 8.04599C0.0141946 8.11947 0 8.19824 0 8.27778C0 8.35732 0.0141946 8.43608 0.0417734 8.50956C0.0693522 8.58305 0.109775 8.64982 0.160734 8.70607C0.211693 8.76231 0.27219 8.80692 0.338771 8.83736C0.405352 8.8678 0.476714 8.88347 0.548781 8.88347V8.88347C1.12423 8.88347 1.59496 9.32662 1.72477 9.88723C1.98936 11.0299 2.52796 12.08 3.29148 12.9227C4.00881 13.7145 4.89204 14.2871 5.85482 14.5956C6.46262 14.7904 6.95122 15.3116 6.95122 15.9499V15.9499C6.95122 16.1105 7.00904 16.2646 7.11195 16.3782C7.21487 16.4917 7.35445 16.5556 7.5 16.5556C7.64555 16.5556 7.78513 16.4917 7.88805 16.3782C7.99096 16.2646 8.04878 16.1105 8.04878 15.9499V15.9499C8.04878 15.3114 8.53715 14.7899 9.14496 14.5945C10.1072 14.2853 10.9899 13.7125 11.707 12.921C12.4702 12.0786 13.009 11.0292 13.2744 9.8871C13.4047 9.32645 13.8756 8.88347 14.4512 8.88347V8.88347C14.5233 8.88347 14.5946 8.8678 14.6612 8.83736C14.7278 8.80692 14.7883 8.76231 14.8393 8.70607C14.8902 8.64982 14.9306 8.58305 14.9582 8.50956C14.9858 8.43608 15 8.35732 15 8.27778C15 8.19824 14.9858 8.11947 14.9582 8.04599C14.9306 7.9725 14.8902 7.90573 14.8393 7.84949C14.7883 7.79325 14.7278 7.74863 14.6612 7.71819C14.5946 7.68775 14.5233 7.67209 14.4512 7.67209H14.4146ZM7.46341 13.6442C7.46341 13.642 7.46161 13.6402 7.45938 13.6402C6.49986 13.6393 5.56202 13.3248 4.76416 12.7364C3.96517 12.1472 3.34244 11.3097 2.97471 10.3299C2.60698 9.35003 2.51077 8.27183 2.69823 7.23163C2.8857 6.19143 3.34843 5.23594 4.02791 4.486C4.70739 3.73606 5.5731 3.22534 6.51556 3.01843C7.45803 2.81152 8.43491 2.91771 9.3227 3.32358C10.2105 3.72945 10.9693 4.41676 11.5031 5.2986C12.037 6.18044 12.322 7.2172 12.322 8.27778C12.322 9.70071 11.8103 11.0655 10.8994 12.0724C9.98937 13.0783 8.75524 13.6449 7.46746 13.6482C7.46523 13.6482 7.46341 13.6464 7.46341 13.6442V13.6442Z" fill="#1371FF"/>
<path d="M10.7787 8.2856C10.7787 9.0111 10.5837 9.72029 10.2183 10.3234C9.85296 10.9265 9.33371 11.3965 8.72628 11.6737C8.11884 11.951 7.45054 12.0231 6.80594 11.881C6.16135 11.7389 5.56945 11.3889 5.10516 10.8753C4.64087 10.3617 4.32506 9.70768 4.19771 8.99592C4.07036 8.28417 4.13719 7.54672 4.38974 6.8769C4.64229 6.20709 5.06922 5.63503 5.61647 5.23313C6.16372 4.83123 6.80671 4.61755 7.46404 4.61915C7.89994 4.61915 8.33156 4.71404 8.73418 4.8984C9.13681 5.08275 9.50254 5.35295 9.81043 5.69352C10.1183 6.03408 10.3623 6.43833 10.5285 6.88312C10.6946 7.32791 10.7796 7.8045 10.7787 8.2856Z" fill="#1371FF"/>
</svg>
