<svg width="28" height="29" viewBox="0 0 28 29" fill="none" xmlns="http://www.w3.org/2000/svg">
<path fill-rule="evenodd" clip-rule="evenodd" d="M12.81 0.97777C15.2263 0.771569 17.6547 1.19653 19.8573 2.21103C22.0599 3.22553 23.9613 4.79477 25.3751 6.76503V3.98953C25.3751 3.64143 25.5133 3.30759 25.7595 3.06145C26.0056 2.81531 26.3395 2.67702 26.6876 2.67702C27.0357 2.67702 27.3695 2.81531 27.6156 3.06145C27.8618 3.30759 28.0001 3.64143 28.0001 3.98953V11.427H20.5625C20.2144 11.427 19.8806 11.2888 19.6345 11.0426C19.3883 10.7965 19.25 10.4626 19.25 10.1145C19.25 9.76644 19.3883 9.4326 19.6345 9.18646C19.8806 8.94032 20.2144 8.80204 20.5625 8.80204H23.5848C22.388 6.92937 20.6688 5.44831 18.6397 4.54181C16.6105 3.63531 14.3603 3.34309 12.1669 3.70124C9.97348 4.05939 7.93305 5.05222 6.29764 6.55709C4.66222 8.06196 3.50347 10.0129 2.96451 12.169C2.92475 12.3384 2.85172 12.4982 2.74966 12.6391C2.64761 12.78 2.51856 12.8992 2.37002 12.9897C2.22148 13.0803 2.05642 13.1404 1.88443 13.1666C1.71245 13.1929 1.53697 13.1846 1.3682 13.1424C1.19943 13.1002 1.04073 13.0248 0.901345 12.9207C0.761958 12.8166 0.644657 12.6858 0.556265 12.536C0.467872 12.3861 0.410151 12.2202 0.386457 12.0479C0.362764 11.8755 0.373571 11.7002 0.418251 11.532C1.1262 8.70128 2.70096 6.16247 4.9224 4.27048C7.14383 2.3785 9.90092 1.2279 12.8083 0.97952L12.81 0.97777ZM6.86001 26.9688C8.73599 28.0807 10.8458 28.739 13.0212 28.8912C15.1966 29.0434 17.3776 28.6853 19.3901 27.8455C21.4026 27.0056 23.1911 25.7072 24.613 24.0538C26.035 22.4004 27.051 20.4376 27.5801 18.3221C27.6588 17.9864 27.6024 17.6332 27.4229 17.3388C27.2434 17.0445 26.9553 16.8325 26.6208 16.7489C26.2863 16.6652 25.9324 16.7165 25.6354 16.8917C25.3385 17.0668 25.1224 17.3518 25.0338 17.6851C24.4945 19.8407 23.3357 21.7912 21.7005 23.2957C20.0652 24.8002 18.0251 25.7927 15.8321 26.1509C13.6391 26.509 11.3892 26.217 9.36026 25.3108C7.33134 24.4047 5.61225 22.9242 4.41526 21.0521H7.43752C7.78561 21.0521 8.11945 20.9138 8.3656 20.6676C8.61174 20.4215 8.75002 20.0877 8.75002 19.7396C8.75002 19.3915 8.61174 19.0576 8.3656 18.8115C8.11945 18.5653 7.78561 18.4271 7.43752 18.4271H0V25.8646C0 26.2127 0.138281 26.5465 0.384423 26.7927C0.630565 27.0388 0.964405 27.1771 1.3125 27.1771C1.6606 27.1771 1.99444 27.0388 2.24058 26.7927C2.48672 26.5465 2.62501 26.2127 2.62501 25.8646V23.0891C3.75338 24.6611 5.19539 25.9821 6.86001 26.9688Z" fill="#1371FF"/>
</svg>
