<svg width="31" height="30" viewBox="0 0 31 30" fill="none" xmlns="http://www.w3.org/2000/svg">
<ellipse cx="15.5" cy="15" rx="15.5" ry="15" fill="#1371FF"/>
<path d="M8 10.006C8 9.73922 8.0885 9.48333 8.24603 9.29466C8.40356 9.10599 8.61722 9 8.84 9H21.16C21.3828 9 21.5964 9.10599 21.754 9.29466C21.9115 9.48333 22 9.73922 22 10.006C22 10.2729 21.9115 10.5287 21.754 10.7174C21.5964 10.9061 21.3828 11.0121 21.16 11.0121H8.84C8.61722 11.0121 8.40356 10.9061 8.24603 10.7174C8.0885 10.5287 8 10.2729 8 10.006ZM10.24 15.3716C10.24 15.1047 10.3285 14.8488 10.486 14.6602C10.6436 14.4715 10.8572 14.3655 11.08 14.3655H18.92C19.1428 14.3655 19.3564 14.4715 19.514 14.6602C19.6715 14.8488 19.76 15.1047 19.76 15.3716C19.76 15.6384 19.6715 15.8943 19.514 16.0829C19.3564 16.2716 19.1428 16.3776 18.92 16.3776H11.08C10.8572 16.3776 10.6436 16.2716 10.486 16.0829C10.3285 15.8943 10.24 15.6384 10.24 15.3716ZM12.48 20.7371C12.48 20.4703 12.5685 20.2144 12.726 20.0257C12.8836 19.837 13.0972 19.731 13.32 19.731H16.68C16.9028 19.731 17.1164 19.837 17.274 20.0257C17.4315 20.2144 17.52 20.4703 17.52 20.7371C17.52 21.0039 17.4315 21.2598 17.274 21.4484C17.1164 21.6371 16.9028 21.7431 16.68 21.7431H13.32C13.0972 21.7431 12.8836 21.6371 12.726 21.4484C12.5685 21.2598 12.48 21.0039 12.48 20.7371Z" fill="white"/>
</svg>
