<svg width="18" height="18" viewBox="0 0 18 18" fill="none" xmlns="http://www.w3.org/2000/svg">
<g clip-path="url(#clip0_48_5050)">
<path d="M1.57124 8.31474C1.53313 7.87652 1.87856 7.49976 2.31842 7.49976H3.75037C4.16459 7.49976 4.50037 7.83553 4.50037 8.24976V15.3748C4.50037 15.789 4.16459 16.1248 3.75037 16.1248H2.93798C2.54895 16.1248 2.2245 15.8273 2.1908 15.4397L1.57124 8.31474Z" fill="white" stroke="white" stroke-width="1.92021" stroke-linecap="round" stroke-linejoin="round"/>
<path d="M6.75 8.01513C6.75 7.70175 6.94477 7.42125 7.22824 7.28763C7.84642 6.99622 8.89984 6.40987 9.375 5.61738C9.98741 4.59603 10.1029 2.75068 10.1217 2.32799C10.1243 2.26882 10.1226 2.20957 10.1308 2.15091C10.2323 1.41887 11.6454 2.27404 12.1875 3.17824C12.4817 3.66896 12.5194 4.3137 12.4885 4.81706C12.4554 5.35563 12.2975 5.87591 12.1426 6.39281L11.8125 7.49388H15.8838C16.3812 7.49388 16.7408 7.96912 16.6056 8.44773L14.5917 15.5785C14.5005 15.9016 14.2057 16.1247 13.87 16.1247H7.5C7.08577 16.1247 6.75 15.7889 6.75 15.3747V8.01513Z" fill="white" stroke="white" stroke-width="1.92021" stroke-linecap="round" stroke-linejoin="round"/>
</g>
<defs>
<clipPath id="clip0_48_5050">
<rect width="18" height="18" fill="white"/>
</clipPath>
</defs>
</svg>
