<svg width="201" height="39" viewBox="0 0 201 39" fill="none" xmlns="http://www.w3.org/2000/svg">
<path fill-rule="evenodd" clip-rule="evenodd" d="M0 19.5C0 14.7777 0 12.4166 0.547678 10.4863C1.913 5.67414 5.67414 1.913 10.4863 0.547678C12.4166 0 14.7777 0 19.5 0L176.5 0C181.222 0 183.583 0 185.514 0.547678C190.326 1.913 194.087 5.67414 195.452 10.4863C196 12.4166 196 14.7777 196 19.5C196 24.2223 196 26.5834 195.452 28.5137C194.087 33.3259 190.326 37.087 185.514 38.4523C183.583 39 181.222 39 176.5 39L19.5 39C14.7777 39 12.4166 39 10.4863 38.4523C5.67414 37.087 1.913 33.3259 0.547678 28.5137C0 26.5834 0 24.2223 0 19.5Z" fill="#1371FF"/>
<path fill-rule="evenodd" clip-rule="evenodd" d="M200.809 38.6846V39.0006H195.039C187.605 39.0006 181.578 32.9737 181.578 25.5391L196.001 25.5391C196.001 28.172 196.001 29.4885 196.184 30.5887C196.725 33.8291 198.408 36.6689 200.809 38.6846Z" fill="#1371FF"/>
</svg>
