<svg width="35" height="35" viewBox="0 0 35 35" fill="none" xmlns="http://www.w3.org/2000/svg">
<circle cx="17.0605" cy="17.0605" r="17.0605" fill="#1371FF"/>
<path d="M28.1239 16.4329L19.0324 7.34148C18.8595 7.17594 18.6556 7.04618 18.4324 6.95964C17.9897 6.77778 17.4932 6.77778 17.0505 6.95964C16.8273 7.04618 16.6234 7.17594 16.4504 7.34148L7.35896 16.4329C7.18943 16.6025 7.05495 16.8037 6.96319 17.0253C6.87144 17.2468 6.82422 17.4842 6.82422 17.7239C6.82422 18.2081 7.01657 18.6725 7.35896 19.0149C7.70136 19.3573 8.16574 19.5497 8.64995 19.5497C9.13417 19.5497 9.59855 19.3573 9.94094 19.0149L15.9231 13.0146V26.8154C15.9231 27.2976 16.1147 27.7601 16.4557 28.1011C16.7967 28.4421 17.2592 28.6337 17.7414 28.6337C18.2237 28.6337 18.6861 28.4421 19.0271 28.1011C19.3681 27.7601 19.5597 27.2976 19.5597 26.8154V13.0146L25.5419 19.0149C25.7109 19.1853 25.912 19.3206 26.1336 19.4129C26.3552 19.5052 26.5928 19.5528 26.8329 19.5528C27.0729 19.5528 27.3106 19.5052 27.5322 19.4129C27.7537 19.3206 27.9548 19.1853 28.1239 19.0149C28.2943 18.8459 28.4296 18.6448 28.5219 18.4232C28.6142 18.2016 28.6617 17.964 28.6617 17.7239C28.6617 17.4839 28.6142 17.2462 28.5219 17.0247C28.4296 16.8031 28.2943 16.602 28.1239 16.4329Z" fill="white"/>
</svg>
