<svg width="420" height="58" viewBox="0 0 420 58" fill="none" xmlns="http://www.w3.org/2000/svg">
<path fill-rule="evenodd" clip-rule="evenodd" d="M420 24C420 15.5992 420 11.3988 418.365 8.19014C416.927 5.36771 414.632 3.073 411.81 1.6349C408.601 0 404.401 0 396 0H29C20.5992 0 16.3988 0 13.1902 1.6349C10.3677 3.073 8.07303 5.36771 6.63492 8.19014C5 11.3988 5 15.5992 5 24V34C5 42.4008 5 46.6012 6.63492 49.8099C8.07303 52.6323 10.3677 54.927 13.1902 56.3651C16.3988 58 20.5992 58 29 58H396C404.401 58 408.601 58 411.81 56.3651C414.632 54.927 416.927 52.6323 418.365 49.8099C420 46.6012 420 42.4008 420 34V24Z" fill="#E6E5EB"/>
<path fill-rule="evenodd" clip-rule="evenodd" d="M0 57.6716V58H6C13.732 58 20 51.732 20 44H5.00033C5.00033 46.7383 5.00033 48.1074 4.80939 49.2517C4.24701 52.6218 2.49706 55.5753 0 57.6716Z" fill="#E6E5EB"/>
</svg>
